<svg xmlns:rdf="http://www.w3.org/1999/02/22-rdf-syntax-ns#" xmlns="http://www.w3.org/2000/svg" viewBox="0 0 1024 1024" version="1.1" xmlns:cc="http://creativecommons.org/ns#" xmlns:dc="http://purl.org/dc/elements/1.1/">
<path d="m589.8 897.24c-37.203-2.6755-65.964-9.7721-92.636-22.858-40.788-20.011-69.947-52.106-84.527-93.039-7.7088-21.642-10.783-39.056-11.652-66-.89768-27.839 1.7008-46.001 10.267-71.757 10.75-32.324 32.376-66.632 56.6-89.79 20.231-19.341 39.066-27.755 62.007-27.701 11.929.028 18.828 1.5492 25.189 5.5544 8.7729 5.5232 10.231 13.407 7.1547 38.694-1.7183 14.127-3.3674 21.948-8.9604 42.5-5.2913 19.443-7.218 30.002-8.5566 46.895-1.8621 23.5-.96367 39.679 3.1156 56.105 4.9561 19.957 16.821 35.959 32.266 43.518 11.693 5.7224 17.942 7.0918 35.154 7.7034 51.116 1.8164 89.75-15.927 109.39-50.238 16.038-28.024 17.334-70.741 3.1722-104.59-11.198-26.765-42.674-63.469-90.615-105.67-50.842-44.749-78.228-81.534-92.488-124.23-7.3043-21.869-9.567-38.521-8.6965-64 1.4936-43.717 12.501-78.909 33.441-106.92 24.636-32.954 68.252-60.86 109.74-70.217 32.647-7.3624 73.77-6.677 105.5 1.7584 48.431 12.876 82.05 43.172 95.85 86.378 5.459 17.092 8.766 44.196 7.8085 64-1.6851 34.853-15.075 63.991-40.543 88.227-19.011 18.092-45.086 31.445-71.163 36.444-4.924.94391-8.9527 2.0342-8.9527 2.4227 0 .3886 9.1799 8.616 20.4 18.283 39.181 33.759 50.174 44.607 68.527 67.623 32.988 41.37 49.402 93.438 47.758 151.5-.97904 34.577-7.5205 61.322-21.753 88.937-33.298 64.608-96.865 113.47-178.19 136.97-29.332 8.4752-49.236 12.101-74.738 13.613-17.658 1.0472-23.883 1.0283-39.864-.1209zm154.68-507.15c32.123-33.572 49.971-72.167 50.522-109.25.15133-10.183-.0496-11.461-2.7059-17.212-8.4685-18.333-34.008-30.288-64.704-30.288-32.588-.00048-57.755 10.582-74.028 31.128l-3.0918 3.9038 3.6867 11.082c12.242 36.797 28.648 61.736 64.888 98.636 9.8579 10.038 18.268 18.25 18.688 18.25.4206 0 3.4558-2.8125 6.745-6.25zm-538.82 505.2c-36.412-2.0543-60.465-11.117-73.464-27.679-8.4728-10.795-14.383-26.393-17.724-46.775-1.8956-11.564-1.5799-54.781.54774-75 7.4826-71.106 27.053-167.64 59.613-294.07 33.206-128.93 69.527-234.41 92.716-269.26 7.7746-11.684 19.259-25.295 25.518-30.243 11.15-8.8133 25.642-13.837 40.772-14.133 9.8359-.19247 14.139 1.4693 20.342 7.8564 4.4731 4.6053 10.893 17.468 13.148 26.346 2.3521 9.2581 2.9755 24.496 1.5954 39-3.0445 31.998-17.715 106.53-44.679 227-41.959 187.46-60.047 306.28-62.945 413.5-.58785 21.749-.75699 23.286-3.1086 28.258-4.868 10.293-12.819 13.862-34.832 15.635-2.2.1772-10.075-.021-17.5-.4395z" fill="#ea982a"/>
</svg>
